<?xml version="1.0" encoding="utf-8"?>
<!-- Generator: Adobe Illustrator 24.0.1, SVG Export Plug-In . SVG Version: 6.00 Build 0)  -->
<svg version="1.1" xmlns="http://www.w3.org/2000/svg" xmlns:xlink="http://www.w3.org/1999/xlink" x="0px" y="0px"
	 viewBox="0 0 1366 680" style="enable-background:new 0 0 1366 680;" xml:space="preserve">
<style type="text/css">
	text{font-family: 'Arial', sans-serif}
	.Graphic_x0020_Style{fill:#113655;stroke:#FFFFFF;stroke-width:10;stroke-linecap:round;stroke-linejoin:round;enable-background:new    ;}
	.st0{fill:none;stroke:#3C3C3B;stroke-linecap:round;stroke-linejoin:round;stroke-miterlimit:10;}
	.st1{fill:#99D4E3;}
	.st2{fill:#113655;}
	.st3{fill:#68C4D8;}
	.st4{fill:#245B78;}
	.st5{fill:#3F8CA5;}
	.st6{fill:none;stroke:#113655;stroke-linecap:round;stroke-linejoin:round;stroke-miterlimit:10;}
	.st7{fill:none;stroke:#245B78;stroke-linecap:round;stroke-linejoin:round;stroke-miterlimit:10;}
	.st8{fill:#FFFFFF;}
	.st9{font-family:'Arial';}
	.st10{font-size:20px;}
	.st11{enable-background:new    ;}
	.st12{fill:none;stroke:#FFFFFF;stroke-width:10;stroke-linecap:round;stroke-linejoin:round;}
	.st13{font-weight:bold;}
	.st14{fill:#1D1D1B;}
</style>
<g id="bg">
	<circle class="st0" cx="656.29" cy="416.62" r="450.78"/>
</g>
<g id="Layer_1">
	<g transform="translate(10,10)">
		<g>
			<circle class="st1" cx="494.4" cy="358.41" r="286.07"/>
			<circle class="st2" cx="695.44" cy="117.55" r="20.23"/>
			<circle class="st3" cx="921.5" cy="493.97" r="156.68"/>
			<circle class="st4" cx="758.9" cy="150.42" r="43.38"/>
			<circle class="st5" cx="862.45" cy="244.43" r="90.46"/>
		</g>
	</g>
</g>
<g id="lines">
	<line class="st6" x1="705.19" y1="27.98" x2="705.19" y2="126.98"/>
	<line class="st7" x1="967.5" y1="133.5" x2="788.5" y2="133.5"/>
</g>
<g id="copy">
	<g id="val">
		<text transform="matrix(1 0 0 1 476.0338 644.8188)" class="st8 st9 st10">&gt;1,000</text>
		<text transform="matrix(1 0 0 1 700.7583 138.228)" class="st8 st9 st10">5</text>
		<text transform="matrix(1 0 0 1 854.468 334.7943)" class="st8 st9 st10">&lt;100</text>
		<g>
			<text transform="matrix(1 0 0 1 760.2034 193.5224)" class="st8 st9 st10">23</text>
		</g>
		<text transform="matrix(1 0 0 1 913.1598 650.2584)" class="st8 st9 st10">&gt;300</text>
	</g>
	<g id="desc">
		<g class="st11">
			<text transform="matrix(1 0 0 1 714.888 77.5063)"><tspan x="0" y="0" class="st12 st9 st10">targeting of international organizations,  </tspan><tspan x="0" y="20" class="st12 st9 st10">Internet infrastructure and trust(ed) services</tspan></text>
			<text transform="matrix(1 0 0 1 714.888 77.5063)"><tspan x="0" y="0" class="st2 st9 st10">targeting of international organizations,  </tspan><tspan x="0" y="20" class="st2 st9 st10">Internet infrastructure and trust(ed) services</tspan></text>
		</g>
		<g class="st11">
			<text transform="matrix(1 0 0 1 1098.4517 504.0981)"><tspan x="0" y="0" class="st12 st9 st10">internet shutdowns, opposition  </tspan><tspan x="0" y="20" class="st12 st9 st10">targeting, systemic violations  </tspan><tspan x="0" y="40" class="st12 st9 st10">of human rights</tspan></text>
			<text transform="matrix(1 0 0 1 1098.4517 504.0981)"><tspan x="0" y="0" class="st3 st9 st10">internet shutdowns, opposition  </tspan><tspan x="0" y="20" class="st3 st9 st10">targeting, systemic violations  </tspan><tspan x="0" y="40" class="st3 st9 st10">of human rights</tspan></text>
		</g>
		<g class="st11">
			<text transform="matrix(1 0 0 1 977.8272 183.4622)"><tspan x="0" y="0" class="st12 st9 st10">State-authorized defacements,  </tspan><tspan x="0" y="20" class="st12 st9 st10">DDoS, doxing, data destruction  </tspan><tspan x="0" y="40" class="st12 st9 st10">and sabotage</tspan></text>
			<text transform="matrix(1 0 0 1 977.8272 183.4622)"><tspan x="0" y="0" class="st4 st9 st10">State-authorized defacements,  </tspan><tspan x="0" y="20" class="st4 st9 st10">DDoS, doxing, data destruction  </tspan><tspan x="0" y="40" class="st4 st9 st10">and sabotage</tspan></text>
		</g>
	</g>
	<g id="title">
		<text transform="matrix(1 0 0 1 435.6754 369.6108)" class="st8 st13 st10">Cyber espionage</text>
		<g class="st11">
			<text transform="matrix(1 0 0 1 715.0818 27.5349)"><tspan x="0" y="0" class="st2 st13 st10">Cyber operations  </tspan><tspan x="0" y="20" class="st2 st13 st10">against public trust</tspan></text>
			<text transform="matrix(1 0 0 1 715.0818 27.5349)"><tspan x="0" y="0" class="st12 st13 st10">Cyber operations  </tspan><tspan x="0" y="20" class="st12 st13 st10">against public trust</tspan></text>
			<text transform="matrix(1 0 0 1 715.0818 27.5349)"><tspan x="0" y="0" class="st2 st13 st10">Cyber operations  </tspan><tspan x="0" y="20" class="st2 st13 st10">against public trust</tspan></text>
		</g>
		<text transform="matrix(1 0 0 1 894.2544 503.5147)" class="st11"><tspan x="0" y="0" class="st8 st13 st10">Domestic </tspan><tspan x="-16.41" y="20" class="st8 st13 st10">cyber confict</tspan></text>
		<g class="st11">
			<text transform="matrix(1 0 0 1 977.5817 133.4929)"><tspan x="0" y="0" class="st12 st13 st10">Effect-creating </tspan><tspan x="0" y="20" class="st12 st13 st10">cyber operations</tspan></text>
			<text transform="matrix(1 0 0 1 977.5817 133.4929)"><tspan x="0" y="0" class="st4 st13 st10">Effect-creating </tspan><tspan x="0" y="20" class="st4 st13 st10">cyber operations</tspan></text>
		</g>
		<text transform="matrix(1 0 0 1 844.3296 232.6747)" class="st11"><tspan x="0" y="0" class="st8 st13 st10">Military </tspan><tspan x="6.83" y="20" class="st8 st13 st10">cyber </tspan><tspan x="-13.21" y="40" class="st8 st13 st10">operations</tspan></text>
	</g>
	<text id="top" transform="matrix(1 0 0 1 32.4421 422.5493)" class="st14 st9 st10">Types of cyber confict</text>
</g>
</svg>
