<?xml version="1.0" encoding="utf-8"?>
<!-- Generator: Adobe Illustrator 24.0.1, SVG Export Plug-In . SVG Version: 6.00 Build 0)  -->
<svg version="1.1" xmlns="http://www.w3.org/2000/svg" xmlns:xlink="http://www.w3.org/1999/xlink" x="0px" y="0px"
	 viewBox="0 0 1366 810" style="enable-background:new 0 0 1366 810;" xml:space="preserve">
<style type="text/css">
	
	*{font-family:'Roboto', sans-serif;}
	.Graphic_x0020_Style{fill:#113655;stroke:#FFFFFF;stroke-width:10;stroke-linecap:round;stroke-linejoin:round;enable-background:new    ;}
	.st0{fill:none;stroke:#3C3C3B;stroke-linecap:round;stroke-linejoin:round;stroke-miterlimit:10;}
	.st1{fill:#99D4E3;}
	.st2{fill:#113655;}
	.st3{fill:#68C4D8;}
	.st4{fill:#245B78;}
	.st5{fill:#3F8CA5;}
	.st6{fill:none;stroke:#113655;stroke-linecap:round;stroke-linejoin:round;stroke-miterlimit:10;}
	.st7{fill:none;stroke:#245B78;stroke-linecap:round;stroke-linejoin:round;stroke-miterlimit:10;}
	.st8{enable-background:new    ;}
	.st9{fill:none;stroke:#FFFFFF;stroke-width:10;stroke-linecap:round;stroke-linejoin:round;}
	.st10{font-family:'RobotoCondensed-Regular';}
	.st11{font-size:20px;}
	.st12{fill:#FFFFFF;}
	.st13{font-family:'RobotoCondensed-Bold';}
</style>
<g id="bg">
	<circle class="st0" cx="682.5" cy="417.78" r="450.78"/>
</g>
<g id="Layer_1">
	<g transform="translate(10,10)">
		<g>
			<circle class="st1" cx="573.53" cy="282.88" r="286.07"/>
			<circle class="st2" cx="874.9" cy="195.61" r="20.23"/>
			<circle class="st3" cx="851.82" cy="634.09" r="156.68"/>
			<circle class="st4" cx="909.13" cy="258.35" r="43.38"/>
			<circle class="st5" cx="942.4" cy="394.2" r="90.46"/>
		</g>
	</g>
</g>
<g id="lines">
	<line class="st6" x1="885" y1="96" x2="885" y2="205"/>
	<line class="st7" x1="982.5" y1="228.5" x2="919.5" y2="228.5"/>
</g>
<g id="copy">
	<g class="st8">
		<text transform="matrix(1 0 0 1 895.3904 145.9)"><tspan x="0" y="0" class="st9 st10 st11">targeting of international organizations,  </tspan><tspan x="0" y="20" class="st9 st10 st11">Internet infrastructure and trust(ed) services</tspan></text>
		<text transform="matrix(1 0 0 1 895.3904 145.9)"><tspan x="0" y="0" class="st2 st10 st11">targeting of international organizations,  </tspan><tspan x="0" y="20" class="st2 st10 st11">Internet infrastructure and trust(ed) services</tspan></text>
	</g>
	<g class="st8">
		<text transform="matrix(1 0 0 1 1028.9537 644.4921)"><tspan x="0" y="0" class="st9 st10 st11">internet shutdowns, opposition  </tspan><tspan x="0" y="20" class="st9 st10 st11">targeting, systemic violations  </tspan><tspan x="0" y="40" class="st9 st10 st11">of human rights</tspan></text>
		<text transform="matrix(1 0 0 1 1028.9537 644.4921)"><tspan x="0" y="0" class="st3 st10 st11">internet shutdowns, opposition  </tspan><tspan x="0" y="20" class="st3 st10 st11">targeting, systemic violations  </tspan><tspan x="0" y="40" class="st3 st10 st11">of human rights</tspan></text>
	</g>
	<g class="st8">
		<text transform="matrix(1 0 0 1 992.3295 278.8562)"><tspan x="0" y="0" class="st9 st10 st11">State-authorized defacements,  </tspan><tspan x="0" y="20" class="st9 st10 st11">DDoS, doxing, data destruction  </tspan><tspan x="0" y="40" class="st9 st10 st11">and sabotage</tspan></text>
		<text transform="matrix(1 0 0 1 992.3295 278.8562)"><tspan x="0" y="0" class="st4 st10 st11">State-authorized defacements,  </tspan><tspan x="0" y="20" class="st4 st10 st11">DDoS, doxing, data destruction  </tspan><tspan x="0" y="40" class="st4 st10 st11">and sabotage</tspan></text>
	</g>
	<g id="val">
		<text transform="matrix(1 0 0 1 557.6319 569.3911)" class="st12 st10 st11">&gt;1,000</text>
		<text transform="matrix(1 0 0 1 880.4539 214.9)" class="st12 st10 st11">5</text>
		<text transform="matrix(1 0 0 1 931.6862 484.492)" class="st12 st10 st11">&lt;100</text>
		<g>
			<text transform="matrix(1 0 0 1 909.4564 301.8562)" class="st12 st10 st11">23</text>
		</g>
		<text transform="matrix(1 0 0 1 842.7571 790.7113)" class="st12 st10 st11">&gt;300</text>
	</g>
	<text transform="matrix(1 0 0 1 517.2022 293.3911)" class="st12 st13 st11">Cyber espionage</text>
	<text transform="matrix(1 0 0 1 593.5264 -46.6089)" class="st10 st11" style="fill:#1D1D1B;">Types of cyber confict</text>
	<g class="st8">
		<text transform="matrix(1 0 0 1 895.3904 95.9)"><tspan x="0" y="0" class="st2 st13 st11">Cyber operations  </tspan><tspan x="0" y="20" class="st2 st13 st11">against public trust</tspan></text>
		<text transform="matrix(1 0 0 1 895.3904 95.9)"><tspan x="0" y="0" class="st9 st13 st11">Cyber operations  </tspan><tspan x="0" y="20" class="st9 st13 st11">against public trust</tspan></text>
		<text transform="matrix(1 0 0 1 895.3904 95.9)"><tspan x="0" y="0" class="st2 st13 st11">Cyber operations  </tspan><tspan x="0" y="20" class="st2 st13 st11">against public trust</tspan></text>
	</g>
	<text transform="matrix(1 0 0 1 824.3951 644.4921)" class="st8"><tspan x="0" y="0" class="st12 st13 st11">Domestic </tspan><tspan x="-17.05" y="20" class="st12 st13 st11">cyber confict</tspan></text>
	<g class="st8">
		<text transform="matrix(1 0 0 1 992.3295 228.8562)"><tspan x="0" y="0" class="st9 st13 st11">Effect-creating </tspan><tspan x="0" y="20" class="st9 st13 st11">cyber operations</tspan></text>
		<text transform="matrix(1 0 0 1 992.3295 228.8562)"><tspan x="0" y="0" class="st4 st13 st11">Effect-creating </tspan><tspan x="0" y="20" class="st4 st13 st11">cyber operations</tspan></text>
	</g>
	<text transform="matrix(1 0 0 1 921.4681 380.7113)" class="st8"><tspan x="0" y="0" class="st12 st13 st11">Military </tspan><tspan x="8.58" y="20" class="st12 st13 st11">cyber </tspan><tspan x="-12.07" y="40" class="st12 st13 st11">operations</tspan></text>
</g>
</svg>
